<?xml version="1.0" encoding="UTF-8" standalone="no"?>
<svg
   xmlns:dc="http://purl.org/dc/elements/1.1/"
   xmlns:cc="http://creativecommons.org/ns#"
   xmlns:rdf="http://www.w3.org/1999/02/22-rdf-syntax-ns#"
   xmlns:svg="http://www.w3.org/2000/svg"
   xmlns="http://www.w3.org/2000/svg"
   viewBox="0 0 557.33331 257.33334"
   height="257.33334"
   width="557.33331"
   xml:space="preserve"
   id="svg2"
   version="1.1"><metadata
     id="metadata8"><rdf:RDF><cc:Work
         rdf:about=""><dc:format>image/svg+xml</dc:format><dc:type
           rdf:resource="http://purl.org/dc/dcmitype/StillImage" /></cc:Work></rdf:RDF></metadata><defs
     id="defs6"><clipPath
       id="clipPath18"
       clipPathUnits="userSpaceOnUse"><path
         id="path16"
         d="M 0,193 H 418 V 0 H 0 Z" /></clipPath><linearGradient
       id="linearGradient44"
       spreadMethod="pad"
       gradientTransform="matrix(424,-1,-1,-424,5.9947462,110.77248)"
       gradientUnits="userSpaceOnUse"
       y2="0"
       x2="1"
       y1="0"
       x1="0"><stop
         id="stop36"
         offset="0"
         style="stop-opacity:1;stop-color:#92d8f2" /><stop
         id="stop38"
         offset="0.0752688"
         style="stop-opacity:1;stop-color:#92d8f2" /><stop
         id="stop40"
         offset="0.741935"
         style="stop-opacity:1;stop-color:#3074ad" /><stop
         id="stop42"
         offset="1"
         style="stop-opacity:1;stop-color:#3074ad" /></linearGradient><linearGradient
       id="linearGradient68"
       spreadMethod="pad"
       gradientTransform="matrix(424,-1,-1,-424,5.9555469,94.151825)"
       gradientUnits="userSpaceOnUse"
       y2="0"
       x2="1"
       y1="0"
       x1="0"><stop
         id="stop60"
         offset="0"
         style="stop-opacity:1;stop-color:#92d8f2" /><stop
         id="stop62"
         offset="0.0752688"
         style="stop-opacity:1;stop-color:#92d8f2" /><stop
         id="stop64"
         offset="0.741935"
         style="stop-opacity:1;stop-color:#3074ad" /><stop
         id="stop66"
         offset="1"
         style="stop-opacity:1;stop-color:#3074ad" /></linearGradient><linearGradient
       id="linearGradient92"
       spreadMethod="pad"
       gradientTransform="matrix(424,-1,-1,-424,5.995543,111.11023)"
       gradientUnits="userSpaceOnUse"
       y2="0"
       x2="1"
       y1="0"
       x1="0"><stop
         id="stop84"
         offset="0"
         style="stop-opacity:1;stop-color:#92d8f2" /><stop
         id="stop86"
         offset="0.0752688"
         style="stop-opacity:1;stop-color:#92d8f2" /><stop
         id="stop88"
         offset="0.741935"
         style="stop-opacity:1;stop-color:#3074ad" /><stop
         id="stop90"
         offset="1"
         style="stop-opacity:1;stop-color:#3074ad" /></linearGradient><clipPath
       id="clipPath102"
       clipPathUnits="userSpaceOnUse"><path
         id="path100"
         d="M 0,193 H 418 V 0 H 0 Z" /></clipPath></defs><g
     transform="matrix(1.3333333,0,0,-1.3333333,0,257.33333)"
     id="g10"><g
       id="g12"><g
         clip-path="url(#clipPath18)"
         id="g14"><g
           transform="translate(100.4902,107.3013)"
           id="g20"><path
             id="path22"
             style="fill:#373535;fill-opacity:1;fill-rule:nonzero;stroke:none"
             d="m 0,0 c -1.381,0 -2.5,1.119 -2.5,2.5 0,15.772 -13.624,28.604 -30.371,28.604 -16.746,0 -30.371,-12.832 -30.371,-28.604 0,-1.381 -1.119,-2.5 -2.5,-2.5 -1.381,0 -2.5,1.119 -2.5,2.5 0,18.529 15.867,33.604 35.371,33.604 C -13.367,36.104 2.5,21.029 2.5,2.5 2.5,1.119 1.381,0 0,0" /></g></g></g><g
       id="g24"><g
         id="g26"><g
           id="g32"><g
             id="g34"><path
               id="path46"
               style="fill:url(#linearGradient44);stroke:none"
               d="m 12.48,110.627 c 0,-29.837 24.736,-54.111 55.14,-54.111 v 0 c 17.506,0 31.836,9.731 41.139,22.712 v 0 -21.254 h 13.915 v 103.654 h -13.915 v -17.354 c -9.452,12.233 -24.002,20.465 -41.139,20.465 v 0 c -30.404,0 -55.14,-24.275 -55.14,-54.112 m 14.001,0 c 0,22.27 18.418,40.322 41.139,40.322 v 0 c 22.72,0 41.139,-18.052 41.139,-40.322 v 0 C 108.759,88.358 90.34,70.305 67.62,70.305 v 0 c -22.721,0 -41.139,18.053 -41.139,40.322" /></g></g></g></g><g
       id="g48"><g
         id="g50"><g
           id="g56"><g
             id="g58"><path
               id="path70"
               style="fill:url(#linearGradient68);stroke:none"
               d="m 308.833,144.274 v 17.354 H 294.918 V 22.072 h 13.915 v 57.156 c 9.303,-12.981 23.633,-22.712 41.139,-22.712 v 0 c 30.404,0 55.14,24.274 55.14,54.111 v 0 c 0,29.837 -24.736,54.112 -55.14,54.112 v 0 c -17.137,0 -31.687,-8.232 -41.139,-20.465 m 0,-33.647 c 0,22.27 18.419,40.322 41.139,40.322 v 0 c 22.721,0 41.139,-18.052 41.139,-40.322 v 0 c 0,-22.269 -18.418,-40.322 -41.139,-40.322 v 0 c -22.72,0 -41.139,18.053 -41.139,40.322" /></g></g></g></g><g
       id="g72"><g
         id="g74"><g
           id="g80"><g
             id="g82"><path
               id="path94"
               style="fill:url(#linearGradient92);stroke:none"
               d="m 145.662,148.658 v 12.97 H 131.748 V 57.974 h 13.914 v 73.029 c 1.272,3.064 3.807,8.132 8.268,13.289 v 0 c 7.111,8.222 46.221,12.666 47.777,-21.333 v 0 -64.985 h 15.11 v 67.379 c 0,0 0,23.507 25.556,24.779 v 0 c 25.554,1.27 28.221,-19.84 29.11,-26.728 v 0 -65.43 h 14 v 67.379 c 0,0 -0.667,36.275 -39.555,37.827 v 0 c 0,0 -22.444,3.556 -37.11,-18.444 v 0 c 0,0 -11.111,17.757 -34.444,18.656 v 0 c -0.617,0.024 -1.225,0.036 -1.818,0.036 v 0 c -15.738,0.001 -23.006,-8.179 -26.894,-14.77" /></g></g></g></g><g
       id="g96"><g
         clip-path="url(#clipPath102)"
         id="g98"><g
           transform="translate(66.4279,105.3476)"
           id="g104"><path
             id="path106"
             style="fill:#373535;fill-opacity:1;fill-rule:nonzero;stroke:none"
             d="m 0,0 c -1.84,0 -3.332,1.492 -3.332,3.332 0,1.841 1.492,3.332 3.332,3.332 1.84,0 3.332,-1.491 3.332,-3.332 C 3.332,1.492 1.84,0 0,0 M 33.421,25.284 2.81,10.103 C 1.944,10.463 0.995,10.664 0,10.664 -4.043,10.664 -7.332,7.375 -7.332,3.332 -7.332,-0.711 -4.043,-4 0,-4 c 3.799,0 6.931,2.904 7.296,6.609 z" /></g><g
           transform="translate(20.0757,39.2471)"
           id="g108"><path
             id="path110"
             style="fill:#373535;fill-opacity:1;fill-rule:nonzero;stroke:none"
             d="M 0,0 H 4.472 L 2.236,6.167 Z M 3.487,9.115 9.19,-6.187 H 6.859 L 5.381,-2.18 H -0.891 L -2.388,-6.187 H -4.737 L 0.985,9.115 Z" /></g><g
           transform="translate(34.7956,48.3623)"
           id="g112"><path
             id="path114"
             style="fill:#373535;fill-opacity:1;fill-rule:nonzero;stroke:none"
             d="M 0,0 4.332,-11.565 8.664,0 h 3.54 V -15.303 H 9.601 V -4.34 L 5.478,-15.303 H 3.208 L -0.937,-4.381 V -15.303 H -3.54 L -3.54,0 Z" /></g><g
           transform="translate(51.7397,41.1777)"
           id="g116"><path
             id="path118"
             style="fill:#373535;fill-opacity:1;fill-rule:nonzero;stroke:none"
             d="M 0,0 H 3.013 C 3.291,0 3.565,0.06 3.837,0.177 4.108,0.294 4.352,0.457 4.566,0.665 4.781,0.886 4.955,1.146 5.088,1.443 5.22,1.741 5.287,2.069 5.287,2.43 5.287,2.804 5.22,3.146 5.088,3.457 4.955,3.769 4.781,4.035 4.566,4.257 4.352,4.479 4.108,4.647 3.837,4.766 3.565,4.883 3.291,4.942 3.013,4.942 H 0 Z M 4.917,6.831 C 5.429,6.596 5.887,6.271 6.291,5.855 6.695,5.44 7.023,4.942 7.276,4.36 7.529,3.779 7.655,3.136 7.655,2.43 7.655,1.737 7.522,1.104 7.257,0.53 6.992,-0.045 6.651,-0.539 6.234,-0.955 5.817,-1.37 5.347,-1.688 4.822,-1.91 4.298,-2.132 3.771,-2.242 3.24,-2.242 H 0 V -8.118 H -2.388 V 7.185 h 5.742 c 0.53,0 1.052,-0.119 1.563,-0.354" /></g><g
           transform="translate(63.4878,48.3623)"
           id="g120"><path
             id="path122"
             style="fill:#373535;fill-opacity:1;fill-rule:nonzero;stroke:none"
             d="m 0,0 v -13.019 h 6.537 v -2.284 h -8.963 l 0,15.303 z" /></g><path
           id="path124"
           style="fill:#373535;fill-opacity:1;fill-rule:nonzero;stroke:none"
           d="m 73.208,33.06 h -2.501 v 15.323 h 2.501 z" /><g
           transform="translate(77.3013,46.0986)"
           id="g126"><path
             id="path128"
             style="fill:#373535;fill-opacity:1;fill-rule:nonzero;stroke:none"
             d="M 0,0 H -3.733 V 2.264 H 6.121 V 0 H 2.388 V -13.039 H 0 Z" /></g><g
           transform="translate(86.9653,48.3623)"
           id="g130"><path
             id="path132"
             style="fill:#373535;fill-opacity:1;fill-rule:nonzero;stroke:none"
             d="m 0,0 v -10.05 c 0,-0.415 0.069,-0.806 0.208,-1.173 0.139,-0.367 0.335,-0.688 0.588,-0.965 0.252,-0.277 0.549,-0.499 0.891,-0.665 0.34,-0.166 0.713,-0.249 1.118,-0.249 0.391,0 0.76,0.083 1.108,0.249 0.347,0.166 0.647,0.388 0.9,0.665 0.252,0.277 0.452,0.598 0.597,0.965 0.145,0.367 0.218,0.758 0.218,1.173 V 0 h 2.388 v -10.008 c 0,-0.651 -0.12,-1.315 -0.361,-1.993 -0.239,-0.679 -0.581,-1.288 -1.023,-1.827 -0.442,-0.554 -0.988,-1.004 -1.639,-1.35 -0.651,-0.346 -1.387,-0.519 -2.207,-0.519 -0.822,0 -1.551,0.173 -2.189,0.519 -0.638,0.346 -1.178,0.796 -1.62,1.35 -0.455,0.539 -0.796,1.148 -1.023,1.827 -0.228,0.678 -0.342,1.342 -0.342,1.993 l 0,10.008 z" /></g><g
           transform="translate(99.2827,35.1572)"
           id="g134"><path
             id="path136"
             style="fill:#373535;fill-opacity:1;fill-rule:nonzero;stroke:none"
             d="m 0,0 h 1.952 c 0.757,0 1.459,0.124 2.103,0.373 0.644,0.249 1.2,0.616 1.668,1.101 0.467,0.47 0.833,1.048 1.099,1.733 0.265,0.686 0.398,1.457 0.398,2.315 0,0.845 -0.133,1.61 -0.398,2.295 -0.266,0.685 -0.626,1.27 -1.08,1.754 -0.468,0.485 -1.024,0.863 -1.668,1.132 -0.644,0.27 -1.352,0.405 -2.122,0.405 l -1.952,0 z m 3.089,13.205 c 0.543,0 1.187,-0.132 1.932,-0.394 0.746,-0.263 1.447,-0.7 2.104,-1.309 C 7.794,10.907 8.363,10.122 8.83,9.146 9.297,8.17 9.531,6.969 9.531,5.543 9.531,4.104 9.307,2.896 8.859,1.92 8.41,0.944 7.857,0.158 7.201,-0.437 6.543,-1.032 5.842,-1.457 5.097,-1.714 4.352,-1.97 3.682,-2.098 3.089,-2.098 h -5.363 v 15.303 z" /></g><g
           transform="translate(120.3535,48.3623)"
           id="g138"><path
             id="path140"
             style="fill:#373535;fill-opacity:1;fill-rule:nonzero;stroke:none"
             d="m 0,0 v -2.264 h -6.822 v -3.903 h 6.633 v -2.139 h -6.633 v -4.755 h 7.011 v -2.242 H -9.133 V 0 Z" /></g><g
           transform="translate(132.254,48.3623)"
           id="g142"><path
             id="path144"
             style="fill:#373535;fill-opacity:1;fill-rule:nonzero;stroke:none"
             d="M 0,0 4.406,-11.565 8.811,0 h 3.602 V -15.303 H 9.765 V -4.34 L 5.571,-15.303 H 3.262 l -4.215,10.922 v -10.922 h -2.648 l 0,15.303 z" /></g><g
           transform="translate(155.4092,48.3623)"
           id="g146"><path
             id="path148"
             style="fill:#373535;fill-opacity:1;fill-rule:nonzero;stroke:none"
             d="m 0,0 v -2.264 h -6.822 v -3.903 h 6.633 v -2.139 h -6.633 v -4.755 h 7.011 v -2.242 H -9.133 V 0 Z" /></g><g
           transform="translate(159.73,35.1572)"
           id="g150"><path
             id="path152"
             style="fill:#373535;fill-opacity:1;fill-rule:nonzero;stroke:none"
             d="m 0,0 h 1.952 c 0.757,0 1.459,0.124 2.103,0.373 0.644,0.249 1.2,0.616 1.668,1.101 0.467,0.47 0.833,1.048 1.099,1.733 0.265,0.686 0.398,1.457 0.398,2.315 0,0.845 -0.133,1.61 -0.398,2.295 -0.266,0.685 -0.626,1.27 -1.08,1.754 -0.468,0.485 -1.024,0.863 -1.668,1.132 -0.644,0.27 -1.352,0.405 -2.122,0.405 l -1.952,0 z m 3.089,13.205 c 0.543,0 1.187,-0.132 1.932,-0.394 0.746,-0.263 1.447,-0.7 2.104,-1.309 C 7.794,10.907 8.363,10.122 8.83,9.146 9.297,8.17 9.531,6.969 9.531,5.543 9.531,4.104 9.307,2.896 8.859,1.92 8.41,0.944 7.857,0.158 7.201,-0.437 6.543,-1.032 5.842,-1.457 5.097,-1.714 4.352,-1.97 3.682,-2.098 3.089,-2.098 h -5.363 v 15.303 z" /></g><path
           id="path154"
           style="fill:#373535;fill-opacity:1;fill-rule:nonzero;stroke:none"
           d="m 174.396,33.06 h -2.501 v 15.323 h 2.501 z" /><g
           transform="translate(180.915,39.2471)"
           id="g156"><path
             id="path158"
             style="fill:#373535;fill-opacity:1;fill-rule:nonzero;stroke:none"
             d="M 0,0 H 4.472 L 2.236,6.167 Z M 3.486,9.115 9.19,-6.187 H 6.859 L 5.382,-2.18 H -0.891 L -2.388,-6.187 H -4.737 L 0.985,9.115 Z" /></g><g
           transform="translate(199.8828,41.1777)"
           id="g160"><path
             id="path162"
             style="fill:#373535;fill-opacity:1;fill-rule:nonzero;stroke:none"
             d="M 0,0 H 3.013 C 3.29,0 3.565,0.06 3.837,0.177 4.108,0.294 4.352,0.457 4.566,0.665 4.781,0.886 4.955,1.146 5.088,1.443 5.221,1.741 5.287,2.069 5.287,2.43 5.287,2.804 5.221,3.146 5.088,3.457 4.955,3.769 4.781,4.035 4.566,4.257 4.352,4.479 4.108,4.647 3.837,4.766 3.565,4.883 3.29,4.942 3.013,4.942 H 0 Z M 4.917,6.831 C 5.429,6.596 5.887,6.271 6.291,5.855 6.695,5.44 7.023,4.942 7.276,4.36 7.529,3.779 7.655,3.136 7.655,2.43 7.655,1.737 7.522,1.104 7.258,0.53 6.992,-0.045 6.651,-0.539 6.234,-0.955 5.817,-1.37 5.347,-1.688 4.822,-1.91 4.298,-2.132 3.771,-2.242 3.24,-2.242 H 0 V -8.118 H -2.388 V 7.185 h 5.742 c 0.531,0 1.051,-0.119 1.563,-0.354" /></g><g
           transform="translate(211.6689,39.2471)"
           id="g164"><path
             id="path166"
             style="fill:#373535;fill-opacity:1;fill-rule:nonzero;stroke:none"
             d="M 0,0 H 4.472 L 2.236,6.167 Z M 3.486,9.115 9.19,-6.187 H 6.859 L 5.382,-2.18 H -0.891 L -2.388,-6.187 H -4.737 L 0.985,9.115 Z" /></g><g
           transform="translate(237.042,46.0986)"
           id="g168"><path
             id="path170"
             style="fill:#373535;fill-opacity:1;fill-rule:nonzero;stroke:none"
             d="M 0,0 H -3.733 V 2.264 H 6.12 V 0 H 2.388 V -13.039 H 0 Z" /></g><g
           transform="translate(246.6299,48.3418)"
           id="g172"><path
             id="path174"
             style="fill:#373535;fill-opacity:1;fill-rule:nonzero;stroke:none"
             d="M 0,0 6.31,-11.316 V 0 H 8.622 V -15.282 H 6.14 l -6.311,11.316 v -11.316 h -2.293 l 0,15.282 z" /></g><g
           transform="translate(266.8301,48.3623)"
           id="g176"><path
             id="path178"
             style="fill:#373535;fill-opacity:1;fill-rule:nonzero;stroke:none"
             d="m 0,0 v -2.264 h -6.822 v -3.903 h 6.633 v -2.139 h -6.633 v -4.755 h 7.011 v -2.242 H -9.134 V 0 Z" /></g><g
           transform="translate(286.6035,44.999)"
           id="g180"><path
             id="path182"
             style="fill:#373535;fill-opacity:1;fill-rule:nonzero;stroke:none"
             d="m 0,0 c -0.107,0.263 -0.263,0.505 -0.464,0.727 -0.19,0.235 -0.424,0.428 -0.701,0.581 -0.278,0.152 -0.588,0.228 -0.929,0.228 -0.72,0 -1.276,-0.225 -1.668,-0.675 -0.391,-0.45 -0.587,-0.952 -0.587,-1.506 0,-0.415 0.133,-0.757 0.398,-1.027 0.265,-0.269 0.594,-0.502 0.985,-0.695 0.379,-0.181 0.79,-0.343 1.232,-0.488 0.442,-0.146 0.834,-0.301 1.175,-0.467 0.416,-0.222 0.83,-0.426 1.241,-0.614 0.411,-0.186 0.774,-0.424 1.089,-0.715 0.329,-0.291 0.591,-0.668 0.787,-1.132 0.196,-0.464 0.294,-1.07 0.294,-1.817 0,-0.609 -0.13,-1.197 -0.389,-1.764 -0.259,-0.569 -0.615,-1.067 -1.07,-1.495 -0.443,-0.444 -0.96,-0.8 -1.554,-1.07 -0.594,-0.27 -1.226,-0.398 -1.895,-0.384 -0.821,0 -1.548,0.156 -2.179,0.467 -0.632,0.312 -1.157,0.716 -1.573,1.215 -0.429,0.485 -0.752,1.03 -0.966,1.64 -0.215,0.609 -0.323,1.204 -0.323,1.786 h 2.369 c 0,-0.872 0.268,-1.551 0.805,-2.035 0.537,-0.485 1.153,-0.727 1.848,-0.727 0.391,0 0.745,0.066 1.061,0.197 0.316,0.131 0.581,0.308 0.796,0.53 0.228,0.221 0.401,0.468 0.521,0.737 0.12,0.27 0.18,0.543 0.18,0.82 0,0.595 -0.214,1.055 -0.644,1.381 -0.43,0.325 -0.942,0.64 -1.535,0.945 -0.518,0.221 -1.071,0.432 -1.658,0.633 -0.587,0.201 -1.127,0.453 -1.621,0.758 -0.492,0.318 -0.903,0.727 -1.231,1.225 -0.328,0.498 -0.492,1.163 -0.492,1.993 0,0.581 0.123,1.145 0.369,1.692 0.246,0.547 0.578,1.028 0.995,1.444 0.417,0.415 0.906,0.75 1.469,1.007 0.561,0.255 1.158,0.383 1.79,0.383 0.67,0 1.282,-0.132 1.838,-0.394 C 0.318,3.121 0.799,2.782 1.203,2.366 1.595,1.937 1.91,1.453 2.15,0.913 2.391,0.373 2.529,-0.174 2.567,-0.728 H 0.161 C 0.161,-0.506 0.107,-0.264 0,0" /></g><g
           transform="translate(275.916,39.3818)"
           id="g184"><path
             id="path186"
             style="fill:#373535;fill-opacity:1;fill-rule:nonzero;stroke:none"
             d="M 0,0 C 0.512,0.271 0.95,0.626 1.316,1.069 1.683,1.498 1.974,1.99 2.188,2.544 2.403,3.098 2.511,3.672 2.511,4.268 2.511,4.959 2.384,5.596 2.132,6.178 1.879,6.759 1.55,7.257 1.146,7.672 0.741,8.088 0.284,8.413 -0.228,8.648 -0.739,8.884 -1.261,9.001 -1.791,9.001 H -7.532 V -6.302 h 2.368 v 6.956 1.163 4.942 h 3.032 c 0.278,0 0.552,-0.06 0.824,-0.177 0.272,-0.117 0.515,-0.287 0.73,-0.509 0.215,-0.221 0.389,-0.484 0.52,-0.789 0.133,-0.305 0.2,-0.643 0.2,-1.016 0,-0.374 -0.067,-0.71 -0.2,-1.008 C -0.189,2.962 -0.363,2.703 -0.578,2.481 -0.793,2.273 -1.036,2.111 -1.308,1.993 -1.58,1.876 -1.854,1.817 -2.132,1.817 H -4.867 V 0.246 l 4.781,-6.568 H 2.511 L -1.64,-0.426 C -1.059,-0.412 -0.512,-0.27 0,0" /></g><g
           transform="translate(229.9834,39.3818)"
           id="g188"><path
             id="path190"
             style="fill:#373535;fill-opacity:1;fill-rule:nonzero;stroke:none"
             d="M 0,0 C 0.512,0.271 0.95,0.626 1.316,1.069 1.683,1.498 1.974,1.99 2.188,2.544 2.403,3.098 2.511,3.672 2.511,4.268 2.511,4.959 2.384,5.596 2.132,6.178 1.879,6.759 1.55,7.257 1.146,7.672 0.741,8.088 0.284,8.413 -0.228,8.648 -0.739,8.884 -1.261,9.001 -1.791,9.001 H -7.532 V -6.302 h 2.368 v 6.956 1.163 4.942 h 3.032 c 0.278,0 0.552,-0.06 0.824,-0.177 0.272,-0.117 0.515,-0.287 0.73,-0.509 0.215,-0.221 0.389,-0.484 0.52,-0.789 0.133,-0.305 0.2,-0.643 0.2,-1.016 0,-0.374 -0.067,-0.71 -0.2,-1.008 C -0.189,2.962 -0.363,2.703 -0.578,2.481 -0.793,2.273 -1.036,2.111 -1.308,1.993 -1.58,1.876 -1.854,1.817 -2.132,1.817 H -4.867 V 0.246 l 4.781,-6.568 H 2.511 L -1.64,-0.426 C -1.059,-0.412 -0.512,-0.27 0,0" /></g></g></g></g></svg>